# xmcd
#
# Track frame offsets: 
#        150
#        16069
#        29604
#        43220
#        56426
#        73284
#        87287
#        101761
#        116533
#        130715
#        142794
#
# Disc length: 2130 seconds
#
# Revision: 0
# Processed by: cddbd v1.5.2PL0 Copyright (c) Steve Scherf et al.
# Submitted via: ExactAudioCopyFreeDBPlugin 1.0
#
DISCID=9308500b
DTITLE=Joshua Radin - Wax Wings
DYEAR=2013
DGENRE=Folk/Pop
TTITLE0=Beautiful Day
TTITLE1=When We're Together
TTITLE2=Cross That Line
TTITLE3=Back to Where I'm From
TTITLE4=Lovely Tonight
TTITLE5=Your Rainy Days
TTITLE6=With Me
TTITLE7=Like They Used To
TTITLE8=In Her Eyes
TTITLE9=Stay
TTITLE10=My My Love
EXTD=
EXTT0=
EXTT1=
EXTT2=
EXTT3=
EXTT4=
EXTT5=
EXTT6=
EXTT7=
EXTT8=
EXTT9=
EXTT10=
PLAYORDER=
